<svg aria-hidden="true" style="width:0;height:0;position:absolute;overflow:hidden" xmlns="http://www.w3.org/2000/svg"><defs><symbol id="icon-film" viewBox="0 0 32 32"><path fill="#fff" style="fill:var(--color1,#fff)" d="M26.4 30.667H5.6c-2.4 0-4.267-1.867-4.267-4.267V5.6c0-2.4 1.867-4.267 4.267-4.267h20.8c2.4 0 4.267 1.867 4.267 4.267v20.8c0 2.4-1.867 4.267-4.267 4.267zM24 28h2.4c.933 0 1.6-.667 1.6-1.6V24h-4v4zm-13.333 0h10.667V17.333H10.667V28zM4 24v2.4c0 .933.667 1.6 1.6 1.6H8v-4H4zm20-2.667h4v-4h-4v4zm-20 0h4v-4H4v4zm20-6.666h4v-4h-4v4zm-13.333 0h10.667V4H10.667v10.667zm-6.667 0h4v-4H4v4zM24 8h4V5.6c0-.933-.667-1.6-1.6-1.6H24v4zM4 8h4V4H5.6C4.667 4 4 4.667 4 5.6V8z"/></symbol><symbol id="icon-search" viewBox="0 0 32 32"><path fill="#fff" style="fill:var(--color1,#fff)" d="M28 29.333c-.267 0-.8 0-1.067-.267l-4.8-4.8c-2.133 1.6-4.533 2.667-7.467 2.667-6.667 0-12-5.333-12-12s5.333-12.267 12-12.267 12 5.333 12 12-1.067 5.333-2.667 7.467l4.8 4.8c.533.533.533 1.333 0 1.867s-.533.267-1.067.267zm-13.333-24c-5.067 0-9.333 4.267-9.333 9.333s4.267 9.333 9.333 9.333 4.8-1.067 6.4-2.667c1.6-1.6 2.667-4 2.667-6.4 0-5.067-4.267-9.333-9.333-9.333z"/></symbol><symbol id="icon-arrow-right" viewBox="0 0 16 16" fill="none" xmlns="http://www.w3.org/2000/svg"><path d="M3.333 8h9.334M8 12.667 12.667 8 8 3.333" stroke="#000" stroke-width="1.333" stroke-linecap="round" stroke-linejoin="round"/></symbol></defs></svg>