<svg aria-hidden="true" style="position: absolute; width: 0; height: 0; overflow: hidden;" version="1.1" xmlns="http://www.w3.org/2000/svg" xmlns:xlink="http://www.w3.org/1999/xlink">
<defs>
<symbol id="icon-film" viewBox="0 0 32 32">
<path fill="#fff" style="fill: var(--color1, #fff)" d="M26.4 30.667h-20.8c-2.4 0-4.267-1.867-4.267-4.267v-20.8c0-2.4 1.867-4.267 4.267-4.267h20.8c2.4 0 4.267 1.867 4.267 4.267v20.8c0 2.4-1.867 4.267-4.267 4.267zM24 28h2.4c0.933 0 1.6-0.667 1.6-1.6v-2.4h-4v4zM10.667 28h10.667v-10.667h-10.667v10.667zM4 24v2.4c0 0.933 0.667 1.6 1.6 1.6h2.4v-4h-4zM24 21.333h4v-4h-4v4zM4 21.333h4v-4h-4v4zM24 14.667h4v-4h-4v4zM10.667 14.667h10.667v-10.667h-10.667v10.667zM4 14.667h4v-4h-4v4zM24 8h4v-2.4c0-0.933-0.667-1.6-1.6-1.6h-2.4v4zM4 8h4v-4h-2.4c-0.933 0-1.6 0.667-1.6 1.6v2.4z"></path>
</symbol>
<symbol id="icon-search" viewBox="0 0 32 32">
<path fill="#fff" style="fill: var(--color1, #fff)" d="M28 29.333c-0.267 0-0.8 0-1.067-0.267l-4.8-4.8c-2.133 1.6-4.533 2.667-7.467 2.667-6.667 0-12-5.333-12-12s5.333-12.267 12-12.267 12 5.333 12 12-1.067 5.333-2.667 7.467l4.8 4.8c0.533 0.533 0.533 1.333 0 1.867s-0.533 0.267-1.067 0.267zM14.667 5.333c-5.067 0-9.333 4.267-9.333 9.333s4.267 9.333 9.333 9.333 4.8-1.067 6.4-2.667c0 0 0 0 0 0s0 0 0 0c1.6-1.6 2.667-4 2.667-6.4 0-5.067-4.267-9.333-9.333-9.333z"></path>
</symbol>
</defs>
</svg>
